<svg width="24" height="24" viewBox="0 0 24 24" fill="none" xmlns="http://www.w3.org/2000/svg">
<path fill-rule="evenodd" clip-rule="evenodd" d="M18.0093 4.00852C18.3999 3.61801 19.0331 3.61801 19.4236 4.00852C19.8141 4.39902 19.8141 5.03216 19.4236 5.42267L13.1303 11.7154L19.4236 18.0081C19.8142 18.3986 19.8142 19.0317 19.4236 19.4223C19.0331 19.8128 18.3999 19.8128 18.0093 19.4223L11.7161 13.1295L5.42276 19.4223C5.03222 19.8128 4.39902 19.8128 4.00848 19.4223C3.61794 19.0317 3.61794 18.3986 4.00848 18.0081L10.3018 11.7154L4.0085 5.42267C3.61796 5.03216 3.61796 4.39902 4.0085 4.00852C4.39904 3.61801 5.03224 3.61801 5.42278 4.00852L11.7161 10.3012L18.0093 4.00852Z" fill="white"/>
</svg>
