<svg width="24" height="24" viewBox="0 0 24 24" fill="none" xmlns="http://www.w3.org/2000/svg">
<path fill-rule="evenodd" clip-rule="evenodd" d="M16.7583 6.21303C17.0424 5.92899 17.5029 5.92899 17.787 6.21303C18.071 6.49708 18.071 6.95761 17.787 7.24165L13.0286 12L17.787 16.7583C18.071 17.0424 18.071 17.5029 17.787 17.787C17.5029 18.071 17.0424 18.071 16.7583 17.787L12 13.0286L7.24165 17.787C6.95761 18.071 6.49708 18.071 6.21303 17.787C5.92899 17.5029 5.92899 17.0424 6.21303 16.7583L10.9714 12L6.21304 7.24165C5.929 6.95761 5.929 6.49708 6.21304 6.21303C6.49709 5.92899 6.95761 5.92899 7.24166 6.21303L12 10.9714L16.7583 6.21303Z" fill="white"/>
</svg>
