<svg width="19" height="16" viewBox="0 0 19 16" fill="none" xmlns="http://www.w3.org/2000/svg">
<path d="M1.43789 8.34575C3.30598 12.4846 6.92717 14.8724 9.3869 15.9257C9.61959 16.0254 9.88038 16.0255 10.1129 15.9253C12.5775 14.8639 16.2496 12.393 18.1178 8.34575C19.4559 5.44697 18.6084 2.07005 16.1555 0.62081C14.5513 -0.168985 12.6259 -0.628386 10.8838 1.94427C10.3789 2.68997 9.12219 2.6897 8.61975 1.94232C6.89168 -0.628166 5.00406 -0.168824 3.40048 0.620777C0.947554 2.07002 -0.0258744 4.47696 1.43789 8.34575Z" fill="white"/>
<path d="M1.43789 8.34575C3.30598 12.4846 6.92717 14.8724 9.3869 15.9257C9.61959 16.0254 9.88038 16.0255 10.1129 15.9253C12.5775 14.8639 16.2496 12.393 18.1178 8.34575C19.4559 5.44697 18.6084 2.07005 16.1555 0.62081C14.5513 -0.168985 12.6259 -0.628386 10.8838 1.94427C10.3789 2.68997 9.12219 2.6897 8.61975 1.94232C6.89168 -0.628166 5.00406 -0.168824 3.40048 0.620777C0.947554 2.07002 -0.0258744 4.47696 1.43789 8.34575Z" fill="url(#paint0_radial_2598_7211)"/>
<path d="M1.43789 8.34575C3.30598 12.4846 6.92717 14.8724 9.3869 15.9257C9.61959 16.0254 9.88038 16.0255 10.1129 15.9253C12.5775 14.8639 16.2496 12.393 18.1178 8.34575C19.4559 5.44697 18.6084 2.07005 16.1555 0.62081C14.5513 -0.168985 12.6259 -0.628386 10.8838 1.94427C10.3789 2.68997 9.12219 2.6897 8.61975 1.94232C6.89168 -0.628166 5.00406 -0.168824 3.40048 0.620777C0.947554 2.07002 -0.0258744 4.47696 1.43789 8.34575Z" fill="url(#paint1_radial_2598_7211)"/>
<path d="M1.43789 8.34575C3.30598 12.4846 6.92717 14.8724 9.3869 15.9257C9.61959 16.0254 9.88038 16.0255 10.1129 15.9253C12.5775 14.8639 16.2496 12.393 18.1178 8.34575C19.4559 5.44697 18.6084 2.07005 16.1555 0.62081C14.5513 -0.168985 12.6259 -0.628386 10.8838 1.94427C10.3789 2.68997 9.12219 2.6897 8.61975 1.94232C6.89168 -0.628166 5.00406 -0.168824 3.40048 0.620777C0.947554 2.07002 -0.0258744 4.47696 1.43789 8.34575Z" fill="url(#paint2_radial_2598_7211)"/>
<defs>
<radialGradient id="paint0_radial_2598_7211" cx="0" cy="0" r="1" gradientUnits="userSpaceOnUse" gradientTransform="translate(18.6214 7.96865) rotate(154.958) scale(15.8031 28.7533)">
<stop stop-color="#FC90D1"/>
<stop offset="0.796674" stop-color="#F0F0F0" stop-opacity="0"/>
</radialGradient>
<radialGradient id="paint1_radial_2598_7211" cx="0" cy="0" r="1" gradientUnits="userSpaceOnUse" gradientTransform="translate(2.86635 5.67603) rotate(24.7229) scale(21.7458 26.3456)">
<stop stop-color="#F3C5FF"/>
<stop offset="0.796674" stop-color="#F0F0F0" stop-opacity="0"/>
</radialGradient>
<radialGradient id="paint2_radial_2598_7211" cx="0" cy="0" r="1" gradientUnits="userSpaceOnUse" gradientTransform="translate(3.1015 15.7896) rotate(-17.5957) scale(22.449 28.6346)">
<stop stop-color="#AAD2FF"/>
<stop offset="0.796674" stop-color="#F0F0F0" stop-opacity="0"/>
</radialGradient>
</defs>
</svg>
