<svg width="24" height="24" viewBox="0 0 24 24" fill="none" xmlns="http://www.w3.org/2000/svg">
<path fill-rule="evenodd" clip-rule="evenodd" d="M13.9696 4.34926C13.9896 4.23585 14 4.11914 14 4C14 2.89543 13.1046 2 12 2C10.8954 2 10 2.89543 10 4C10 4.11914 10.0104 4.23585 10.0304 4.34927C8.91936 4.73558 7.91451 5.41956 7.42857 6.28571C6.83621 7.34156 6.75899 8.6681 6.67819 10.0561C6.61862 11.0796 6.5571 12.1364 6.28571 13.1429C5.83023 14.832 4.97527 16.3791 4.22474 17.3878C3.20754 18.7547 5.78328 19.5852 9.13172 19.8792C9.15959 19.9701 9.19183 20.0599 9.22836 20.1481C9.37913 20.512 9.6001 20.8427 9.87868 21.1213C10.1573 21.3999 10.488 21.6209 10.8519 21.7716C11.2159 21.9224 11.606 22 12 22C12.394 22 12.7841 21.9224 13.1481 21.7716C13.512 21.6209 13.8427 21.3999 14.1213 21.1213C14.3999 20.8427 14.6209 20.512 14.7716 20.1481C14.8082 20.0599 14.8404 19.9701 14.8683 19.8792C18.2167 19.5852 20.7924 18.7547 19.7753 17.3878C19.0248 16.3791 18.1698 14.832 17.7143 13.1429C17.4429 12.1364 17.3814 11.0796 17.3218 10.0562V10.0561C17.241 8.66811 17.1638 7.34156 16.5714 6.28571C16.0855 5.41956 15.0806 4.73558 13.9696 4.34926Z" fill="white"/>
</svg>
