<svg width="24" height="24" viewBox="0 0 24 24" fill="none" xmlns="http://www.w3.org/2000/svg">
<rect x="12" y="1" width="8" height="8" rx="4" fill="#FC90D1"/>
<path fill-rule="evenodd" clip-rule="evenodd" d="M12.7933 1.16352C12.5501 1.05831 12.2819 1 12 1C10.8954 1 10 1.89543 10 3C10 3.11914 10.0104 3.23585 10.0304 3.34927C8.91936 3.73558 7.91451 4.41956 7.42857 5.28571C6.83621 6.34156 6.75899 7.6681 6.67819 9.05614C6.61862 10.0796 6.5571 11.1364 6.28571 12.1429C5.83023 13.832 4.97527 15.3791 4.22474 16.3878C3.20754 17.7547 5.78328 18.5852 9.13172 18.8792C9.15959 18.9701 9.19183 19.0599 9.22836 19.1481C9.37913 19.512 9.6001 19.8427 9.87868 20.1213C10.1573 20.3999 10.488 20.6209 10.8519 20.7716C11.2159 20.9224 11.606 21 12 21C12.394 21 12.7841 20.9224 13.1481 20.7716C13.512 20.6209 13.8427 20.3999 14.1213 20.1213C14.3999 19.8427 14.6209 19.512 14.7716 19.1481C14.8082 19.0599 14.8404 18.9701 14.8683 18.8792C18.2167 18.5852 20.7924 17.7547 19.7753 16.3878C19.0248 15.3791 18.1698 13.832 17.7143 12.1429C17.5091 11.3821 17.4239 10.5925 17.3688 9.81032C16.9338 9.93387 16.4746 10 16 10C13.2386 10 11 7.76142 11 5C11 3.45894 11.6972 2.08071 12.7933 1.16352Z" fill="white"/>
</svg>
