<svg width="24" height="24" viewBox="0 0 24 24" fill="none" xmlns="http://www.w3.org/2000/svg">
<path fill-rule="evenodd" clip-rule="evenodd" d="M11.2726 4.16315C11.2726 4.43929 11.4964 4.66315 11.7726 4.66315C12.0487 4.66315 12.2726 4.43929 12.2726 4.16315V2.5C12.2726 2.22386 12.0487 2 11.7726 2C11.4964 2 11.2726 2.22386 11.2726 2.5V4.16315ZM8.49152 5.18398C8.68371 5.38226 8.99532 5.38226 9.18752 5.18398C9.37972 4.9857 9.37972 4.66422 9.18752 4.46594L8.05848 3.30116C7.86628 3.10287 7.55467 3.10287 7.36247 3.30116C7.17028 3.49944 7.17028 3.82091 7.36247 4.01919L8.49152 5.18398ZM5.37082 20.6014V11.4916C5.37082 10.2448 8.02318 6.95046 12 6.95046C15.9768 6.95046 18.6268 10.2448 18.6268 11.4916V20.6013H19.2978C19.6844 20.6013 19.9978 20.9148 19.9978 21.3013C19.9978 21.6879 19.6844 22.0014 19.2978 22.0014H4.7C4.3134 22.0014 4 21.688 4 21.3014C4 20.9148 4.3134 20.6014 4.7 20.6014H5.37082ZM12.7 9.98638C12.6999 9.59978 12.3864 9.28646 11.9998 9.28655C11.6132 9.28665 11.2999 9.60013 11.3 9.98673L11.3013 15.064C11.3014 15.4506 11.6149 15.7639 12.0015 15.7638C12.3881 15.7637 12.7014 15.4502 12.7013 15.0636L12.7 9.98638ZM12 19.0242C12.5523 19.0242 13 18.5808 13 18.034C13 17.4871 12.5523 17.0437 12 17.0437C11.4477 17.0437 11 17.4871 11 18.034C11 18.5808 11.4477 19.0242 12 19.0242ZM14.4453 5.18398C14.6375 5.38226 14.9491 5.38226 15.1413 5.18398L16.2703 4.01919C16.4625 3.82091 16.4625 3.49944 16.2703 3.30116C16.0781 3.10287 15.7665 3.10287 15.5743 3.30116L14.4453 4.46594C14.2531 4.66422 14.2531 4.9857 14.4453 5.18398Z" fill="white"/>
</svg>
