<svg class='fill-[#243c5a]' width="24" height="24" viewBox="0 0 24 24"  xmlns="http://www.w3.org/2000/svg">
<path fill-rule="evenodd" clip-rule="evenodd" d="M10.5483 2C9.99602 2 9.5483 2.44771 9.5483 3V5.64599C9.02949 5.85248 8.5412 6.11923 8.09208 6.43759L6.24184 5.29476C5.77196 5.00453 5.17842 5.16326 4.91613 5.64928L3.12382 8.97044C2.86153 9.45646 3.02981 10.0857 3.49969 10.376L5.17447 11.4104C5.14879 11.6542 5.13562 11.9017 5.13562 12.1523C5.13562 12.5074 5.16206 12.8563 5.21307 13.1971L3.49962 14.2558C3.02978 14.5461 2.86148 15.1755 3.12371 15.6615L4.91559 18.9829C5.17782 19.469 5.77127 19.6277 6.24111 19.3374L8.34451 18.0378C8.72239 18.2817 9.12527 18.4902 9.54845 18.6586L9.54845 21C9.54845 21.5523 9.99617 22 10.5485 22H13.723C14.2753 22 14.723 21.5523 14.723 21L14.723 18.6586C15.0043 18.5466 15.2767 18.4169 15.5387 18.2708L17.7582 19.6422C18.228 19.9325 18.8215 19.7738 19.0837 19.2877L20.8756 15.9663C21.1378 15.4802 20.9695 14.8509 20.4997 14.5606L18.981 13.6222C19.0823 13.1483 19.1356 12.6565 19.1356 12.1523C19.1356 11.848 19.1162 11.5482 19.0785 11.2541L20.4997 10.376C20.9695 10.0857 21.1378 9.45637 20.8756 8.97031L19.0837 5.64889C18.8215 5.16283 18.2281 5.00413 17.7582 5.29442L16.0513 6.34907C15.6378 6.06952 15.1928 5.833 14.7228 5.64594V3C14.7228 2.44772 14.2751 2 13.7228 2H10.5483ZM9.01587 12C9.01587 10.3431 10.359 9 12.0159 9C13.6727 9 15.0159 10.3431 15.0159 12C15.0159 13.6569 13.6727 15 12.0159 15C10.359 15 9.01587 13.6569 9.01587 12ZM12.0159 7C9.25445 7 7.01587 9.23858 7.01587 12C7.01587 14.7614 9.25445 17 12.0159 17C14.7773 17 17.0159 14.7614 17.0159 12C17.0159 9.23858 14.7773 7 12.0159 7Z" fill="white"/>
</svg>
