<svg width="8" height="8" viewBox="0 0 8 8" fill="none" xmlns="http://www.w3.org/2000/svg">
<path fill-rule="evenodd" clip-rule="evenodd" d="M7.17251 0.142023C7.36189 -0.0473409 7.66894 -0.0473409 7.85832 0.142023C8.0477 0.331386 8.0477 0.638406 7.85832 0.827769L4.6858 4L7.85832 7.17223C8.0477 7.36159 8.0477 7.66861 7.85832 7.85798C7.66894 8.04734 7.36189 8.04734 7.17251 7.85798L3.99999 4.68574L0.827477 7.85798C0.638097 8.04734 0.33105 8.04734 0.141669 7.85798C-0.0477114 7.66861 -0.0477112 7.36159 0.141669 7.17223L3.31419 4L0.141674 0.827769C-0.0477066 0.638406 -0.0477066 0.331386 0.141674 0.142023C0.331055 -0.0473409 0.638101 -0.0473409 0.827482 0.142023L4 3.31425L7.17251 0.142023Z" fill="#A1A1A1"/>
</svg>
