<svg width="43" height="42" viewBox="0 0 43 42" fill="none" xmlns="http://www.w3.org/2000/svg">
<g filter="url(#filter0_dddddddd_1129_2122)">
<path fill-rule="evenodd" clip-rule="evenodd" d="M25.5 14C24.3954 14 23.5 14.8954 23.5 16H15.5C14.3954 16 13.5 16.8954 13.5 18V26C13.5 27.1046 14.3954 28 15.5 28H27.5C28.6046 28 29.5 27.1046 29.5 26V18V16C29.5 14.8954 28.6046 14 27.5 14H25.5ZM24.5 22C24.5 23.6569 23.1569 25 21.5 25C19.8431 25 18.5 23.6569 18.5 22C18.5 20.3431 19.8431 19 21.5 19C23.1569 19 24.5 20.3431 24.5 22ZM25.5 22C25.5 24.2091 23.7091 26 21.5 26C19.2909 26 17.5 24.2091 17.5 22C17.5 19.7909 19.2909 18 21.5 18C23.7091 18 25.5 19.7909 25.5 22ZM17.5 18C17.5 18.5523 17.0523 19 16.5 19C15.9477 19 15.5 18.5523 15.5 18C15.5 17.4477 15.9477 17 16.5 17C17.0523 17 17.5 17.4477 17.5 18Z" fill="#D88511"/>
</g>
<defs>
<filter id="filter0_dddddddd_1129_2122" x="-3.94" y="-4.44" width="50.88" height="50.88" filterUnits="userSpaceOnUse" color-interpolation-filters="sRGB">
<feFlood flood-opacity="0" result="BackgroundImageFix"/>
<feColorMatrix in="SourceAlpha" type="matrix" values="0 0 0 0 0 0 0 0 0 0 0 0 0 0 0 0 0 0 127 0" result="hardAlpha"/>
<feOffset/>
<feGaussianBlur stdDeviation="0.16"/>
<feColorMatrix type="matrix" values="0 0 0 0 1 0 0 0 0 1 0 0 0 0 1 0 0 0 1 0"/>
<feBlend mode="normal" in2="BackgroundImageFix" result="effect1_dropShadow_1129_2122"/>
<feColorMatrix in="SourceAlpha" type="matrix" values="0 0 0 0 0 0 0 0 0 0 0 0 0 0 0 0 0 0 127 0" result="hardAlpha"/>
<feOffset/>
<feGaussianBlur stdDeviation="0.32"/>
<feColorMatrix type="matrix" values="0 0 0 0 1 0 0 0 0 1 0 0 0 0 1 0 0 0 1 0"/>
<feBlend mode="normal" in2="effect1_dropShadow_1129_2122" result="effect2_dropShadow_1129_2122"/>
<feColorMatrix in="SourceAlpha" type="matrix" values="0 0 0 0 0 0 0 0 0 0 0 0 0 0 0 0 0 0 127 0" result="hardAlpha"/>
<feOffset/>
<feGaussianBlur stdDeviation="1.12"/>
<feColorMatrix type="matrix" values="0 0 0 0 1 0 0 0 0 1 0 0 0 0 1 0 0 0 1 0"/>
<feBlend mode="normal" in2="effect2_dropShadow_1129_2122" result="effect3_dropShadow_1129_2122"/>
<feColorMatrix in="SourceAlpha" type="matrix" values="0 0 0 0 0 0 0 0 0 0 0 0 0 0 0 0 0 0 127 0" result="hardAlpha"/>
<feOffset/>
<feGaussianBlur stdDeviation="2.24"/>
<feColorMatrix type="matrix" values="0 0 0 0 1 0 0 0 0 1 0 0 0 0 1 0 0 0 1 0"/>
<feBlend mode="normal" in2="effect3_dropShadow_1129_2122" result="effect4_dropShadow_1129_2122"/>
<feColorMatrix in="SourceAlpha" type="matrix" values="0 0 0 0 0 0 0 0 0 0 0 0 0 0 0 0 0 0 127 0" result="hardAlpha"/>
<feOffset/>
<feGaussianBlur stdDeviation="3.84"/>
<feColorMatrix type="matrix" values="0 0 0 0 1 0 0 0 0 1 0 0 0 0 1 0 0 0 1 0"/>
<feBlend mode="normal" in2="effect4_dropShadow_1129_2122" result="effect5_dropShadow_1129_2122"/>
<feColorMatrix in="SourceAlpha" type="matrix" values="0 0 0 0 0 0 0 0 0 0 0 0 0 0 0 0 0 0 127 0" result="hardAlpha"/>
<feOffset/>
<feGaussianBlur stdDeviation="6.72"/>
<feColorMatrix type="matrix" values="0 0 0 0 1 0 0 0 0 1 0 0 0 0 1 0 0 0 1 0"/>
<feBlend mode="normal" in2="effect5_dropShadow_1129_2122" result="effect6_dropShadow_1129_2122"/>
<feColorMatrix in="SourceAlpha" type="matrix" values="0 0 0 0 0 0 0 0 0 0 0 0 0 0 0 0 0 0 127 0" result="hardAlpha"/>
<feOffset/>
<feGaussianBlur stdDeviation="0.16"/>
<feColorMatrix type="matrix" values="0 0 0 0 1 0 0 0 0 1 0 0 0 0 1 0 0 0 1 0"/>
<feBlend mode="normal" in2="effect6_dropShadow_1129_2122" result="effect7_dropShadow_1129_2122"/>
<feColorMatrix in="SourceAlpha" type="matrix" values="0 0 0 0 0 0 0 0 0 0 0 0 0 0 0 0 0 0 127 0" result="hardAlpha"/>
<feOffset/>
<feGaussianBlur stdDeviation="0.32"/>
<feColorMatrix type="matrix" values="0 0 0 0 1 0 0 0 0 1 0 0 0 0 1 0 0 0 1 0"/>
<feBlend mode="normal" in2="effect7_dropShadow_1129_2122" result="effect8_dropShadow_1129_2122"/>
<feBlend mode="normal" in="SourceGraphic" in2="effect8_dropShadow_1129_2122" result="shape"/>
</filter>
</defs>
</svg>
