<svg xmlns="http://www.w3.org/2000/svg" fill="none" viewBox="0 0 40 46">
  <g filter="url(#a)">
    <path fill="#336CFB" fill-rule="evenodd" d="M19.8 16.84c0 1.57-1.3 2.84-2.9 2.84-1.6 0-2.9-1.27-2.9-2.84 0-1.57 1.3-2.84 2.9-2.84 1.6 0 2.9 1.27 2.9 2.84Zm.93 0c0 .45-.08.88-.22 1.28a2.9 2.9 0 0 0 2.6 1.56c1.6 0 2.89-1.27 2.89-2.84 0-1.57-1.3-2.84-2.9-2.84a2.9 2.9 0 0 0-2.6 1.57c.15.4.23.83.23 1.27Zm-.93 6.7c0-1.11.62-2.07 1.52-2.56a1.5 1.5 0 0 0-.1.35l-.75 4.43h-.67v-2.23Zm0 8.46v-3.24H23l.21-1.25.97-5.68c.05-.3 0-.6-.1-.85a2.9 2.9 0 0 1 1.52 2.55V32h-5.8Zm3.88-10.25a1 1 0 1 0-1.97-.34l-.82 4.85H18v-4.68a1 1 0 1 0-2 0v8.53a1 1 0 1 0 2 0v-1.85h4.58l.14-.83.96-5.68Zm-8.16-.77A2.9 2.9 0 0 0 14 23.53V32h5.8v-3.24h-1.4v1.35a1.5 1.5 0 1 1-3 0v-8.53c0-.21.04-.42.12-.6Zm2.88 4.78h1.4v-2.25a2.9 2.9 0 0 0-1.53-2.53c.08.18.13.39.13.6v4.18Z" clip-rule="evenodd"/>
  </g>
  <defs>
    <filter id="a" width="50.88" height="50.88" x="-5.44" y="-2.44" color-interpolation-filters="sRGB" filterUnits="userSpaceOnUse">
      <feFlood flood-opacity="0" result="BackgroundImageFix"/>
      <feColorMatrix in="SourceAlpha" result="hardAlpha" values="0 0 0 0 0 0 0 0 0 0 0 0 0 0 0 0 0 0 127 0"/>
      <feOffset/>
      <feGaussianBlur stdDeviation=".16"/>
      <feColorMatrix values="0 0 0 0 1 0 0 0 0 1 0 0 0 0 1 0 0 0 1 0"/>
      <feBlend in2="BackgroundImageFix" result="effect1_dropShadow_1129_1971"/>
      <feColorMatrix in="SourceAlpha" result="hardAlpha" values="0 0 0 0 0 0 0 0 0 0 0 0 0 0 0 0 0 0 127 0"/>
      <feOffset/>
      <feGaussianBlur stdDeviation=".32"/>
      <feColorMatrix values="0 0 0 0 1 0 0 0 0 1 0 0 0 0 1 0 0 0 1 0"/>
      <feBlend in2="effect1_dropShadow_1129_1971" result="effect2_dropShadow_1129_1971"/>
      <feColorMatrix in="SourceAlpha" result="hardAlpha" values="0 0 0 0 0 0 0 0 0 0 0 0 0 0 0 0 0 0 127 0"/>
      <feOffset/>
      <feGaussianBlur stdDeviation="1.12"/>
      <feColorMatrix values="0 0 0 0 1 0 0 0 0 1 0 0 0 0 1 0 0 0 1 0"/>
      <feBlend in2="effect2_dropShadow_1129_1971" result="effect3_dropShadow_1129_1971"/>
      <feColorMatrix in="SourceAlpha" result="hardAlpha" values="0 0 0 0 0 0 0 0 0 0 0 0 0 0 0 0 0 0 127 0"/>
      <feOffset/>
      <feGaussianBlur stdDeviation="2.24"/>
      <feColorMatrix values="0 0 0 0 1 0 0 0 0 1 0 0 0 0 1 0 0 0 1 0"/>
      <feBlend in2="effect3_dropShadow_1129_1971" result="effect4_dropShadow_1129_1971"/>
      <feColorMatrix in="SourceAlpha" result="hardAlpha" values="0 0 0 0 0 0 0 0 0 0 0 0 0 0 0 0 0 0 127 0"/>
      <feOffset/>
      <feGaussianBlur stdDeviation="3.84"/>
      <feColorMatrix values="0 0 0 0 1 0 0 0 0 1 0 0 0 0 1 0 0 0 1 0"/>
      <feBlend in2="effect4_dropShadow_1129_1971" result="effect5_dropShadow_1129_1971"/>
      <feColorMatrix in="SourceAlpha" result="hardAlpha" values="0 0 0 0 0 0 0 0 0 0 0 0 0 0 0 0 0 0 127 0"/>
      <feOffset/>
      <feGaussianBlur stdDeviation="6.72"/>
      <feColorMatrix values="0 0 0 0 1 0 0 0 0 1 0 0 0 0 1 0 0 0 1 0"/>
      <feBlend in2="effect5_dropShadow_1129_1971" result="effect6_dropShadow_1129_1971"/>
      <feColorMatrix in="SourceAlpha" result="hardAlpha" values="0 0 0 0 0 0 0 0 0 0 0 0 0 0 0 0 0 0 127 0"/>
      <feOffset/>
      <feGaussianBlur stdDeviation=".16"/>
      <feColorMatrix values="0 0 0 0 1 0 0 0 0 1 0 0 0 0 1 0 0 0 1 0"/>
      <feBlend in2="effect6_dropShadow_1129_1971" result="effect7_dropShadow_1129_1971"/>
      <feColorMatrix in="SourceAlpha" result="hardAlpha" values="0 0 0 0 0 0 0 0 0 0 0 0 0 0 0 0 0 0 127 0"/>
      <feOffset/>
      <feGaussianBlur stdDeviation=".32"/>
      <feColorMatrix values="0 0 0 0 1 0 0 0 0 1 0 0 0 0 1 0 0 0 1 0"/>
      <feBlend in2="effect7_dropShadow_1129_1971" result="effect8_dropShadow_1129_1971"/>
      <feBlend in="SourceGraphic" in2="effect8_dropShadow_1129_1971" result="shape"/>
    </filter>
  </defs>
</svg>
